<svg width="44" height="49" viewBox="0 0 44 49" fill="none" xmlns="http://www.w3.org/2000/svg">
<g clip-path="url(#clip0)">
<path d="M30.4286 9.51276C30.4286 4.60668 26.7829 0.629639 22.2857 0.629639C17.7885 0.629639 14.1429 4.60668 14.1429 9.51276C14.1429 14.4188 17.7885 18.3959 22.2857 18.3959C26.7829 18.3959 30.4286 14.4188 30.4286 9.51276ZM20.3849 22.9392C15.3524 19.5784 7.20107 18.655 3.0991 18.4005C1.72076 18.3154 0.571426 19.4609 0.571426 20.9072V41.5234C0.571426 42.8494 1.55451 43.9552 2.81835 44.0264C6.52165 44.2383 14.0139 45.0147 19.1923 47.8601C19.9871 48.2968 20.9294 47.7018 20.9294 46.7617V23.9996C20.9286 23.5675 20.7326 23.1715 20.3849 22.9392ZM41.4723 18.4005C37.3712 18.654 29.219 19.5784 24.1874 22.9392C23.8396 23.1715 23.6437 23.5832 23.6437 24.0154V46.7589C23.6437 47.7018 24.5886 48.2977 25.3859 47.8601C30.5634 45.0175 38.0515 44.2411 41.7539 44.0292C43.0178 43.957 44.0008 42.8513 44.0008 41.5253V20.9072C44 19.4609 42.8507 18.3154 41.4723 18.4005Z" fill="#5F10A9"/>
</g>
<defs>
<clipPath id="clip0">
<rect width="43.4286" height="47.3766" fill="white" transform="translate(0.571426 0.629639)"/>
</clipPath>
</defs>
</svg>
