<svg width="218" height="196" viewBox="0 0 218 196" fill="none" xmlns="http://www.w3.org/2000/svg">
<path d="M208.745 77.6939C208.745 111.696 186.905 140.594 156.487 151.128C144.243 155.343 131.144 156.453 118.365 154.356C117.152 154.158 115.948 153.93 114.753 153.673C113.133 153.329 111.532 152.934 109.951 152.486C77.2934 143.295 53.3573 113.29 53.3573 77.6939C53.3573 34.7845 88.1418 0 131.051 0C173.961 0 208.745 34.7845 208.745 77.6939Z" fill="#E6E6E6"/>
<path d="M82.3889 101.674C82.2521 101.747 82.1499 101.871 82.1048 102.02C82.0597 102.168 82.0754 102.328 82.1483 102.465L111.359 157.178C111.432 157.315 111.557 157.417 111.705 157.462C111.854 157.507 112.014 157.491 112.151 157.418L153.443 135.372C153.58 135.299 153.682 135.175 153.727 135.026C153.772 134.878 153.757 134.718 153.684 134.581L124.473 79.8684C124.4 79.7316 124.275 79.6294 124.127 79.5843C123.978 79.5392 123.818 79.5548 123.681 79.6278L82.3889 101.674Z" fill="#3F3D56"/>
<path d="M86.2271 103.272L112.958 153.339L149.605 133.774L122.874 83.7066L86.2271 103.272ZM83.9049 104.512L83.9101 104.51L83.9044 104.512L83.9049 104.512Z" fill="white"/>
<path d="M95.4671 108.777C94.8978 109.081 94.7766 109.968 95.1965 110.755C95.6164 111.541 96.4211 111.934 96.9904 111.63L123.83 97.3001C124.4 96.9962 124.521 96.1088 124.101 95.3224C123.681 94.536 122.877 94.143 122.307 94.447L95.4671 108.777Z" fill="#6C63FF"/>
<path d="M98.774 114.971C98.2046 115.275 98.0834 116.162 98.5033 116.948C98.9232 117.735 99.728 118.128 100.297 117.824L127.137 103.494C127.707 103.19 127.828 102.303 127.408 101.516C126.988 100.73 126.183 100.337 125.614 100.641L98.774 114.971Z" fill="#6C63FF"/>
<path d="M102.081 121.164C101.512 121.468 101.39 122.356 101.81 123.142C102.23 123.929 103.035 124.322 103.604 124.018L130.444 109.688C131.014 109.384 131.135 108.497 130.715 107.71C130.295 106.924 129.49 106.531 128.921 106.835L102.081 121.164Z" fill="#5F10A9"/>
<path d="M105.388 127.358C104.818 127.662 104.697 128.55 105.117 129.336C105.537 130.123 106.342 130.516 106.911 130.212L133.751 115.882C134.32 115.578 134.442 114.69 134.022 113.904C133.602 113.118 132.797 112.725 132.228 113.029L105.388 127.358Z" fill="#5F10A9"/>
<path d="M108.695 133.552C108.125 133.856 108.004 134.744 108.424 135.53C108.844 136.316 109.649 136.709 110.218 136.405L137.058 122.076C137.627 121.772 137.749 120.884 137.329 120.098C136.909 119.311 136.104 118.918 135.535 119.222L108.695 133.552Z" fill="#5F10A9"/>
<path d="M113.907 78.0359L138.227 79.521L145.038 59.2093L123.706 54.7022L113.907 78.0359Z" fill="#2F2E41"/>
<path d="M131.446 72.8997C136.818 72.8997 141.173 68.5449 141.173 63.173C141.173 57.8011 136.818 53.4463 131.446 53.4463C126.074 53.4463 121.72 57.8011 121.72 63.173C121.72 68.5449 126.074 72.8997 131.446 72.8997Z" fill="#46322E"/>
<path d="M147.249 82.711L131.481 85.2913L127.324 68.8064L138.362 67.803L147.249 82.711Z" fill="#46322E"/>
<path d="M156.424 150.371L156.487 151.127C144.243 155.343 131.144 156.453 118.365 154.356L118.282 155.7C118.235 156.421 118.02 157.12 117.653 157.742C117.286 158.364 116.778 158.89 116.17 159.28C115.562 159.669 114.87 159.909 114.152 159.982C113.434 160.054 112.709 159.956 112.035 159.697L114.753 153.673L118.19 146.05L120.444 141.053L119.632 123.765L119.546 121.977L119.44 119.694L120.908 119.686L131.344 119.623L141.289 119.56L142.806 119.551C152.315 131.248 160.162 140.755 156.424 150.371Z" fill="#2F2E41"/>
<path d="M142.662 119.408L119.44 121.988L118.58 105.933C115.855 98.9825 117.654 92.7785 123.31 87.2112L124.46 82.6597C124.762 81.465 125.385 80.376 126.263 79.511C127.14 78.646 128.238 78.0383 129.437 77.7538C133.238 75.5737 137.544 74.5346 142.376 74.6836C144.305 75.4371 145.941 76.7911 147.042 78.5456C148.143 80.3002 148.65 82.3623 148.489 84.4274C147.49 97.0446 145.696 108.855 142.662 119.408Z" fill="#5F10A9"/>
<path d="M136.068 92.4586L135.882 93.8663L132.915 116.254L131.344 119.623L130.83 120.724L118.867 146.357L118.365 154.356L118.282 155.7C118.242 156.369 118.056 157.022 117.737 157.612C117.418 158.201 116.974 158.714 116.436 159.114C115.898 159.514 115.279 159.792 114.623 159.927C113.966 160.062 113.288 160.052 112.635 159.898C111.983 159.743 111.372 159.448 110.846 159.032C110.32 158.617 109.891 158.091 109.59 157.492C109.288 156.893 109.122 156.236 109.101 155.566C109.081 154.896 109.207 154.229 109.472 153.613L109.951 152.486L112.56 146.357L119.632 123.766L120.214 121.902L120.908 119.686L122.88 113.387L126.023 94.0182L126.321 92.1719L136.068 92.4586Z" fill="#46322E"/>
<path d="M137.789 94.4655C133.283 92.8464 128.961 92.6743 124.887 94.4655L126.217 82.9418C126.168 81.5027 126.686 80.102 127.659 79.0408C128.632 77.9796 129.983 77.3427 131.421 77.267C132.143 77.229 132.866 77.334 133.548 77.5758C134.23 77.8177 134.857 78.1918 135.394 78.6767C135.93 79.1615 136.366 79.7475 136.676 80.4011C136.986 81.0547 137.164 81.7631 137.199 82.4856L137.789 94.4655Z" fill="#5F10A9"/>
<path d="M124.088 51.681C124.088 51.681 119.059 53.5163 118.93 60.1891C118.923 61.3119 119.072 62.4303 119.375 63.5116C119.701 64.738 119.963 67.3988 117.77 70.9459C116.337 73.2482 115.041 75.6332 113.89 78.0886L119.553 78.635L120.489 69.2472C120.943 64.6959 122.065 60.2361 123.818 56.0115L123.855 55.9233C123.855 55.9233 126.453 60.4388 131.391 60.2997L129.577 58.5859C129.577 58.5859 135.762 60.9149 139.125 61.3825C139.509 61.4359 139.871 61.5931 140.172 61.837C140.473 62.0809 140.702 62.4023 140.834 62.7667C140.966 63.131 140.996 63.5245 140.921 63.9046C140.846 64.2848 140.668 64.6373 140.408 64.9241C140.388 64.9457 140.368 64.9673 140.347 64.9891C138.291 67.1649 134.197 72.2219 136.775 76.032C139.354 79.8421 137.267 80.9598 137.267 80.9598L141.087 78.7343L142.821 77.6266L142.861 79.0374L152.001 77.721C152.001 77.721 154.46 77.2987 149.001 71.4519C149.001 71.4519 147.538 69.1629 148.093 67.1374C148.552 65.5971 148.638 63.9696 148.344 62.3893C146.973 55.8108 141.952 42.7965 124.088 51.681Z" fill="#2F2E41"/>
</svg>
