<svg width="53" height="52" viewBox="0 0 53 52" fill="none" xmlns="http://www.w3.org/2000/svg">
<path d="M7.33121 41.7951C-2.21875 31.6713 -1.32761 16.0397 9.33237 6.88132C19.9923 -2.27704 36.3671 -1.49873 45.9171 8.63079C55.4671 18.7603 54.5759 34.3862 43.916 43.5446C41.6623 45.4812 51.6127 48.4911 48.9669 49.5438C39.0983 53.4709 18.4314 53.5616 7.32881 41.7951H7.33121ZM32.9842 17.5045L37.6143 12.8139C36.4585 11.7934 33.7659 9.73397 28.4539 9.64558C22.1607 9.54112 16.9257 12.8943 16.8162 18.8292C16.7922 20.1298 16.8511 23.0445 20.3543 25.1234C24.4985 27.5823 30.7594 27.5926 30.6968 31.1226C30.6523 33.5654 27.5195 34.0855 26.0559 34.0614C25.6951 34.0556 22.4204 34.0085 20.3303 31.2351L15.5198 36.1265C18.9064 39.226 22.6152 39.8711 25.5605 39.9205C26.7907 39.9412 37.1561 39.9584 37.3268 30.6221C37.3605 28.8072 37.0779 26.0624 33.8561 24.1258C29.7239 21.6417 23.6339 21.8931 23.7024 18.4148C23.7517 15.7458 27.4305 15.5024 28.2158 15.5151C28.2675 15.5151 31.4172 15.5449 32.9806 17.509L32.9842 17.5045Z" fill="#5F10A9"/>
</svg>
